<?xml version="1.0" encoding="UTF-8" standalone="no"?>
<!-- Created with Inkscape (http://www.inkscape.org/) -->

<svg
   xmlns:dc="http://purl.org/dc/elements/1.1/"
   xmlns:cc="http://creativecommons.org/ns#"
   xmlns:rdf="http://www.w3.org/1999/02/22-rdf-syntax-ns#"
   xmlns:svg="http://www.w3.org/2000/svg"
   xmlns="http://www.w3.org/2000/svg"
   version="1.1"
   width="100"
   height="100"
   viewBox="0 0 100 100"
   id="Layer_1"
   xml:space="preserve"><metadata
   id="metadata3039"><rdf:RDF><cc:Work
       rdf:about=""><dc:format>image/svg+xml</dc:format><dc:type
         rdf:resource="http://purl.org/dc/dcmitype/StillImage" /><dc:title></dc:title></cc:Work></rdf:RDF></metadata><defs
   id="defs3037" />
<path
   d="m 84.2,39.2 c -2.763,0 -5.282,1.039 -7.192,2.745 L 77.026,24.8 h -0.052 c 0,-0.994 -0.806,-1.8 -1.8,-1.8 H 58.048 C 59.759,21.089 60.8,18.567 60.8,15.8 60.8,9.835 55.965,5 50,5 44.035,5 39.2,9.835 39.2,15.8 c 0,2.767 1.041,5.289 2.752,7.2 H 24.774 c -0.994,0 -1.8,0.806 -1.8,1.8 V 41.93 C 21.066,40.233 18.554,39.2 15.8,39.2 9.835,39.2 5,44.035 5,50 c 0,5.965 4.835,10.8 10.8,10.8 2.754,0 5.266,-1.033 7.174,-2.73 V 75.2 c 0,0.994 0.806,1.8 1.8,1.8 h 17.178 c -1.711,1.911 -2.752,4.433 -2.752,7.2 0,5.965 4.835,10.8 10.8,10.8 5.965,0 10.8,-4.835 10.8,-10.8 0,-2.767 -1.041,-5.289 -2.752,-7.2 h 17.126 c 0.994,0 1.8,-0.806 1.8,-1.8 L 76.992,58.041 C 78.904,59.756 81.43,60.8 84.2,60.8 90.165,60.8 95,55.965 95,50 95,44.035 90.165,39.2 84.2,39.2 z M 42.8,15.8 c 0,-3.976 3.224,-7.2 7.2,-7.2 3.976,0 7.2,3.224 7.2,7.2 0,3.976 -3.224,7.2 -7.2,7.2 -3.976,0 -7.2,-3.224 -7.2,-7.2 z m -27,41.4 c -3.976,0 -7.2,-3.224 -7.2,-7.2 0,-3.976 3.224,-7.2 7.2,-7.2 3.777,0 6.873,2.91 7.174,6.61 v 1.181 C 22.673,54.29 19.577,57.2 15.8,57.2 z m 41.4,27 c 0,3.976 -3.224,7.2 -7.2,7.2 -3.976,0 -7.2,-3.224 -7.2,-7.2 0,-3.976 3.223,-7.2 7.199,-7.2 h 0.002 c 3.976,0 7.199,3.224 7.199,7.2 z M 73.374,73.4 h -46.8 V 50.714 C 26.589,50.478 26.6,50.24 26.6,50 c 0,-0.24 -0.011,-0.478 -0.026,-0.714 V 26.6 h 46.8 V 73.4 z M 84.2,57.2 C 80.224,57.2 77,53.976 77,50 c 0,-3.976 3.224,-7.2 7.2,-7.2 3.976,0 7.2,3.224 7.2,7.2 0,3.976 -3.224,7.2 -7.2,7.2 z"
   id="path3033" />
<path
   d="m 24.306136,24.830854 c 0.142647,-0.284778 0.356103,-0.534152 0.641394,-0.748121 h 49.814756 l 0.748635,0.427425 0.10673,49.601295 -0.10673,0.855363 -0.534665,0.427424 H 25.054258 c -0.213969,-0.07132 -0.427425,-0.213975 -0.641394,-0.427424 l -0.10673,-50.135962 z m 1.550121,0.962092 0.160092,23.25027 8.872789,-0.160092 c 0.285292,0.213969 0.498748,0.356101 0.641394,0.427938 v 0.854849 c -2.280284,1.354624 -3.100241,3.349616 -2.458848,5.986515 0.926173,2.066314 2.636899,3.064835 5.131151,2.992999 1.781535,-0.498748 2.993,-1.745617 3.634395,-3.741122 0.285292,-2.13815 -0.605989,-3.883768 -2.672304,-5.238392 v -0.854849 c 0.284779,-0.213969 0.605476,-0.356102 0.962091,-0.427938 h 7.269301 c 0.57007,0.07184 1.282787,0.03541 2.138151,-0.10673 v -5.34512 c -4.133656,2.13815 -7.340625,1.140654 -9.620908,-2.993 -0.926686,-2.779545 -0.213969,-5.237879 2.137637,-7.376029 2.352119,-1.496757 4.84586,-1.496757 7.483271,0 v -7.429391 l -23.678212,0.160092 z m 0,24.800904 0.160092,21.058755 c -0.07132,0.570071 -0.03592,1.247383 0.106731,2.031423 h 23.30415 c 0.07184,-0.499261 0.107245,-1.069332 0.107245,-1.710725 V 65.88006 l 0.10673,-0.748121 0.320697,-0.427425 0.962091,0.10673 c 1.282787,1.852858 3.064836,2.565575 5.345119,2.138151 1.995505,-0.71323 3.099729,-2.209474 3.313697,-4.489757 -0.142132,-2.13815 -1.35411,-3.599502 -3.634394,-4.383028 -1.996018,-0.356103 -3.670312,0.392018 -5.024422,2.244878 -0.285292,0.07132 -0.641395,0.07132 -1.068819,0 L 49.534477,59.680093 V 50.70058 C 48.893084,50.558448 48.073125,50.522016 47.07563,50.59385 h -4.703726 c 1.56808,2.351606 1.638889,4.845859 0.213968,7.482757 -1.710212,2.280283 -4.097736,3.135645 -7.162059,2.565575 C 30.862729,58.432708 29.865235,55.083606 32.430812,50.59385 H 25.85626 z m 25.228332,-24.800904 0.05337,9.941604 c -0.285292,0.213969 -0.641395,0.320697 -1.069333,0.320697 -2.707708,-3.278292 -5.451847,-3.349102 -8.230878,-0.213969 -1.425434,3.20697 -0.356102,5.523171 3.206969,6.948605 1.924182,0.07184 3.598989,-0.748123 5.023909,-2.458334 0.356102,0 0.71323,0.10673 1.069333,0.320696 0.142132,0.641394 0.17805,1.460839 0.10673,2.458335 v 5.932636 l 6.413938,-0.160092 c -1.56808,-2.351606 -1.638889,-4.845859 -0.213969,-7.482757 1.568079,-2.138151 3.812958,-3.028919 6.734635,-2.672303 4.917695,2.066827 6.057837,5.451848 3.420938,10.155573 h 5.879275 l 0.427938,-0.10673 V 25.632854 l -22.822847,0.160092 z m 15.980969,17.852299 c -0.85485,-2.280283 -2.60098,-3.385533 -5.237879,-3.313696 -0.356101,0.07132 -0.783526,0.24886 -1.282788,0.534152 l -0.320697,0.107245 c -3.064835,2.850867 -2.886271,5.558576 0.534667,8.12415 l 0.213456,0.855363 c -0.142134,0.213456 -0.356103,0.427426 -0.641395,0.641394 h -8.979513 c -0.142133,0.641394 -0.178051,1.460839 -0.10673,2.458335 v 4.2763 c 2.351606,-1.425433 4.845858,-1.390029 7.482756,0.10673 2.066828,1.710213 2.850868,4.026928 2.35212,6.948605 -1.996017,4.489757 -5.238392,5.593981 -9.728148,3.313697 -0.142134,0.641394 -0.178051,1.461352 -0.10673,2.458848 v 3.688271 l 22.555518,-0.160098 c 0.07183,-0.499261 0.107245,-1.069332 0.107245,-1.710726 v -21.54057 l -7.910697,0.160605 c -0.499261,0.07132 -0.997496,-0.03541 -1.496757,-0.320697 -0.07132,-0.285292 -0.07132,-0.641395 0,-1.069332 2.138151,-1.210952 2.993513,-3.064323 2.565576,-5.558576 z"
   id="path3105"
   style="fill:#000000" /></svg>